# xmcd
#
# Track frame offsets:
#  180
#  13784
#  31140
#  42592
#  59566
#  73997
#  86848
#  105293
#  125580
#  146250
#  157108
#  174653
#
# Disc length: 2565 seconds
#
# Revision: 0
# Processed by: cddbd v1.4PL0 Copyright (c) Steve Scherf et al.
# Submitted via: AltoMP3_Maker 3.0
#
DISCID=aa0a030c
DTITLE=Los Ciclones del Arroyo - Alla Te Espero
DYEAR=1900
DGENRE=
TTITLE0=Mujer Traicionera
TTITLE1=Alla Te Espero
TTITLE2=Ingratos Ojos Mios
TTITLE3=Esta Sellado
TTITLE4=Cosas del Ayer
TTITLE5=Corazon Solido
TTITLE6=Cuando Me Dejes De Amar
TTITLE7=Corrido de Oscar Chaparro
TTITLE8=Los Pilares De La Carcel
TTITLE9=Llorando Su Ausencia
TTITLE10=Falsa Ilusion
TTITLE11=El Bandolero
EXTD=
EXTT0=
EXTT1=
EXTT2=
EXTT3=
EXTT4=
EXTT5=
EXTT6=
EXTT7=
EXTT8=
EXTT9=
EXTT10=
EXTT11=
PLAYORDER=
